<?xml version="1.0" standalone="no"?>
<!DOCTYPE svg PUBLIC "-//W3C//DTD SVG 20010904//EN"
 "http://www.w3.org/TR/2001/REC-SVG-20010904/DTD/svg10.dtd">
<svg version="1.0" xmlns="http://www.w3.org/2000/svg"
 width="256.000000pt" height="256.000000pt" viewBox="0 0 256.000000 256.000000"
 preserveAspectRatio="xMidYMid meet">
<metadata>
Created by potrace 1.11, written by Peter Selinger 2001-2013
</metadata>
<g transform="translate(0.000000,256.000000) scale(0.100000,-0.100000)"
fill="#000000" stroke="none">
<path d="M1153 2290 c-23 -5 -51 -13 -61 -19 -13 -7 -33 -6 -68 5 -53 17 -126
14 -191 -6 -49 -16 -145 -61 -159 -75 -7 -6 -25 -22 -40 -36 -101 -85 -184
-247 -225 -439 -53 -250 22 -919 118 -1048 21 -28 30 -32 71 -32 l47 -1 -36
-32 c-78 -70 -84 -86 -87 -250 l-4 -147 26 0 c26 0 26 0 11 30 -22 42 -19 148
5 212 12 32 35 67 61 90 63 57 197 101 262 84 13 -3 64 -45 114 -93 123 -119
171 -163 180 -163 5 0 139 114 153 131 3 3 34 31 69 62 49 44 71 57 95 57 53
0 120 -28 160 -67 l38 -37 -4 -105 c-3 -93 -6 -110 -27 -140 -13 -18 -38 -39
-55 -47 -28 -12 -17 -13 109 -14 l140 0 -6 83 c-6 76 5 373 16 407 2 8 9 54
15 103 12 95 24 133 48 142 35 13 54 -41 82 -230 11 -77 26 -222 32 -323 8
-119 16 -182 23 -182 13 0 11 103 -5 325 -6 77 -11 239 -13 360 l-2 220 45 13
c25 7 65 19 90 27 25 8 68 19 95 24 123 24 145 32 145 52 0 16 -7 19 -48 19
-26 0 -74 -7 -105 -15 -32 -8 -68 -15 -81 -15 -13 0 -35 -9 -49 -20 -14 -11
-29 -20 -33 -20 -16 0 -74 -52 -74 -67 0 -28 -33 -42 -96 -43 -79 0 -93 11
-95 79 -2 46 1 56 22 72 13 10 40 19 60 19 l35 0 2 193 c3 267 -15 372 -90
527 -42 86 -63 117 -118 170 -122 118 -232 160 -425 166 -71 1 -149 -1 -172
-6z m-103 -512 c40 -20 130 -42 245 -62 132 -23 249 -62 296 -98 9 -7 19 -35
23 -62 l8 -49 -30 24 c-16 14 -49 33 -75 43 -43 16 -49 16 -104 0 -42 -12 -70
-28 -100 -59 -24 -23 -43 -50 -43 -59 0 -24 13 -19 35 16 28 44 49 49 41 11
-10 -43 19 -111 51 -119 34 -9 122 1 136 15 7 7 12 40 12 77 0 37 4 64 10 64
5 -1 23 -12 40 -25 27 -22 29 -27 18 -54 -9 -24 -8 -29 3 -24 17 6 18 -23 4
-119 -27 -183 -166 -370 -317 -424 -55 -19 -195 -18 -254 3 -27 10 -49 21 -49
25 0 5 -6 8 -13 8 -8 0 -41 25 -75 56 -102 92 -163 216 -181 369 -10 78 -5 98
20 85 15 -8 17 -7 13 5 -4 8 -10 15 -15 15 -5 0 -9 6 -9 14 0 17 56 66 76 66
16 0 19 -16 4 -25 -27 -16 2 -112 37 -127 27 -10 102 -9 122 2 26 13 44 65 38
105 -7 40 -2 42 32 14 16 -13 24 -30 24 -52 -1 -18 2 -25 5 -17 3 8 9 18 15
21 26 18 -56 101 -128 130 -58 23 -156 0 -203 -47 -7 -8 -18 -14 -23 -14 -11
0 -12 37 0 44 4 3 11 21 14 39 11 72 43 121 93 146 26 13 63 41 83 62 l36 37
25 -21 c14 -12 41 -30 60 -39z m-153 -275 c8 -21 -35 -59 -50 -44 -14 14 8 61
28 61 9 0 18 -7 22 -17z m530 1 c4 -10 -4 -25 -21 -40 l-26 -25 0 35 c0 42 34
64 47 30z m373 -894 c0 -37 -7 -37 -50 0 l-35 29 43 1 c40 0 42 -1 42 -30z
m-576 -20 c19 -7 26 -17 26 -35 0 -14 5 -25 11 -25 7 0 1 -11 -12 -24 -36 -36
-101 -38 -133 -6 -57 58 21 123 108 90z"/>
<path d="M1070 1290 c-14 -27 -5 -55 28 -85 21 -20 37 -25 77 -25 57 0 88 17
110 61 12 22 13 34 5 49 -13 24 -14 24 -46 3 -14 -9 -45 -16 -70 -16 -27 0
-51 6 -62 16 -24 22 -29 21 -42 -3z"/>
<path d="M954 1066 c-5 -22 0 -36 27 -69 122 -153 258 -157 384 -14 77 88 59
114 -66 96 -77 -11 -203 -8 -299 7 -36 6 -39 4 -46 -20z"/>
<path d="M2055 1276 c-16 -8 -43 -18 -60 -22 l-30 -7 40 -13 c59 -18 131 -18
139 2 9 23 -12 54 -37 54 -12 0 -35 -7 -52 -14z"/>
</g>
</svg>
